<svg width="112" height="37" viewBox="0 0 112 37" fill="none" xmlns="http://www.w3.org/2000/svg">
<path d="M28.824 36V0.48H23.64V27.504H23.544L6.264 0.48H0.6V36H5.784V8.544H5.88L23.448 36H28.824ZM62.4855 36V9.408H57.4935V13.152H57.3975C55.4775 10.224 52.0695 8.688 48.3735 8.688C38.8215 8.688 34.2615 16.32 34.2615 22.8C34.2615 29.808 39.3975 36.672 48.3735 36.672C51.9735 36.672 55.4775 35.136 57.3975 31.872H57.4935V36H62.4855ZM57.5895 22.752C57.5895 27.84 53.5575 32.112 48.3255 32.112C43.0455 32.112 39.2535 27.552 39.2535 22.752C39.2535 18.576 42.2295 13.248 48.3735 13.248C53.5095 13.248 57.5895 17.088 57.5895 22.752ZM73.9268 36V21.456C73.9268 17.664 75.2708 15.648 76.8548 14.784C78.0547 14.16 79.6868 13.824 80.4548 13.824V8.688C79.2068 8.736 75.7988 8.832 73.6868 11.808H73.5908V9.408H68.9348V36H73.9268ZM111.142 36V9.408H106.15V13.152H106.054C104.134 10.224 100.726 8.688 97.0298 8.688C87.4778 8.688 82.9178 16.32 82.9178 22.8C82.9178 29.808 88.0538 36.672 97.0298 36.672C100.63 36.672 104.134 35.136 106.054 31.872H106.15V36H111.142ZM106.246 22.752C106.246 27.84 102.214 32.112 96.9818 32.112C91.7018 32.112 87.9098 27.552 87.9098 22.752C87.9098 18.576 90.8858 13.248 97.0298 13.248C102.166 13.248 106.246 17.088 106.246 22.752Z" fill="black"/>
</svg>
